<svg width="62" height="62" viewBox="0 0 62 62" fill="none" xmlns="http://www.w3.org/2000/svg">
	<rect width="62" height="62" rx="31" fill="#FE6D3A" fill-opacity="0.2"/>
	<rect x="13" y="13" width="36" height="36" rx="18" fill="#FE6D3A"/>
	<path opacity="0.4" d="M41 31.0049C41 36.5138 36.5116 41 31 41C25.4884 41 21 36.5138 21 31.0049C21 25.4863 25.4884 21 31 21C36.5116 21 41 25.4863 41 31.0049Z" fill="white"/>
	<path d="M35 31.0047C35 31.2575 34.9205 31.5112 34.7614 31.7143C34.7315 31.7542 34.5923 31.9185 34.483 32.0254L34.4233 32.0837C33.5881 32.9693 31.5099 34.301 30.456 34.7277C30.456 34.7374 29.8295 34.9911 29.5312 34.9999H29.4915C29.0341 34.9999 28.6065 34.7481 28.3878 34.3399C28.2685 34.1153 28.1591 33.464 28.1491 33.4553C28.0597 32.8711 28 31.9768 28 30.995C28 29.9656 28.0597 29.0315 28.169 28.458C28.169 28.4482 28.2784 27.9233 28.348 27.7484C28.4574 27.4966 28.6562 27.2818 28.9048 27.1457C29.1037 27.0495 29.3125 26.9999 29.5312 26.9999C29.7599 27.0106 30.1875 27.1554 30.3565 27.2235C31.4702 27.6512 33.598 29.0509 34.4134 29.9063C34.5526 30.0424 34.7017 30.2086 34.7415 30.2465C34.9105 30.4604 35 30.7228 35 31.0047Z" fill="white"/>
</svg>