<svg width="8" height="8" viewBox="0 0 8 8" fill="none" xmlns="http://www.w3.org/2000/svg">
				<path d="M7.01558 5.77026L5.23658 3.99226L7.01458 2.21426C7.35658 1.87326 7.35658 1.31826 7.01458 0.977256C6.67258 0.633256 6.11958 0.634256 5.77758 0.976256L3.99858 2.75426L2.21958 0.974256C1.87758 0.632256 1.32358 0.634256 0.98158 0.974256C0.64058 1.31626 0.64058 1.87126 0.98158 2.21226L2.76158 3.99226L0.98558 5.76726C0.64358 6.10926 0.64358 6.66426 0.98558 7.00426C1.15658 7.17626 1.37958 7.26126 1.60358 7.26126C1.82858 7.26126 2.05158 7.17626 2.22258 7.00526L3.99858 5.22926L5.77858 7.00826C5.94958 7.17926 6.17258 7.26426 6.39658 7.26426C6.62058 7.26426 6.84458 7.17826 7.01558 7.00826C7.35758 6.66626 7.35758 6.11226 7.01558 5.77026Z" fill="#333333"/>
			</svg>