<svg width="42" height="42" viewBox="0 0 42 42" fill="none" xmlns="http://www.w3.org/2000/svg">
<path d="M32.0251 9.99249C31.8632 9.83026 31.6709 9.70156 31.4592 9.61374C31.2475 9.52592 31.0206 9.48072 30.7914 9.48072C30.5622 9.48072 30.3353 9.52592 30.1236 9.61374C29.9118 9.70156 29.7195 9.83026 29.5576 9.99249L21.0001 18.5325L12.4426 9.97499C12.2806 9.81298 12.0883 9.68446 11.8766 9.59677C11.6649 9.50909 11.438 9.46396 11.2089 9.46396C10.9798 9.46396 10.7529 9.50909 10.5412 9.59677C10.3295 9.68446 10.1372 9.81298 9.97515 9.97499C9.81313 10.137 9.68461 10.3294 9.59692 10.541C9.50924 10.7527 9.46411 10.9796 9.46411 11.2087C9.46411 11.4379 9.50924 11.6648 9.59692 11.8764C9.68461 12.0881 9.81313 12.2805 9.97515 12.4425L18.5326 21L9.97515 29.5575C9.81313 29.7195 9.68461 29.9119 9.59692 30.1235C9.50924 30.3352 9.46411 30.5621 9.46411 30.7912C9.46411 31.0204 9.50924 31.2473 9.59692 31.4589C9.68461 31.6706 9.81313 31.863 9.97515 32.025C10.1372 32.187 10.3295 32.3155 10.5412 32.4032C10.7529 32.4909 10.9798 32.536 11.2089 32.536C11.438 32.536 11.6649 32.4909 11.8766 32.4032C12.0883 32.3155 12.2806 32.187 12.4426 32.025L21.0001 23.4675L29.5576 32.025C29.7197 32.187 29.912 32.3155 30.1237 32.4032C30.3354 32.4909 30.5623 32.536 30.7914 32.536C31.0205 32.536 31.2474 32.4909 31.4591 32.4032C31.6708 32.3155 31.8631 32.187 32.0251 32.025C32.1872 31.863 32.3157 31.6706 32.4034 31.4589C32.4911 31.2473 32.5362 31.0204 32.5362 30.7912C32.5362 30.5621 32.4911 30.3352 32.4034 30.1235C32.3157 29.9119 32.1872 29.7195 32.0251 29.5575L23.4676 21L32.0251 12.4425C32.6901 11.7775 32.6901 10.6575 32.0251 9.99249Z" fill="#111111"/>
</svg>
