<svg width="14" height="14" viewBox="0 0 14 14" fill="none" xmlns="http://www.w3.org/2000/svg">
							<path d="M13.3 10.15V3.84999C13.3 3.26899 12.831 2.79999 12.25 2.79999H2.44301C1.86201 2.79999 1.39301 3.26899 1.39301 3.84999V10.15C1.39301 10.731 1.86201 11.2 2.44301 11.2H12.25C12.831 11.2 13.3 10.731 13.3 10.15ZM12.383 3.77299C12.614 4.00399 12.488 4.24199 12.362 4.36099L9.52001 6.96499L12.25 9.80699C12.334 9.90499 12.39 10.059 12.292 10.164C12.201 10.276 11.991 10.269 11.9 10.199L8.84101 7.58799L7.34301 8.95299L5.85201 7.58799L2.79301 10.199C2.70201 10.269 2.49201 10.276 2.40101 10.164C2.30301 10.059 2.35901 9.90499 2.44301 9.80699L5.17301 6.96499L2.33101 4.36099C2.20501 4.24199 2.07901 4.00399 2.31001 3.77299C2.54101 3.54199 2.77901 3.65399 2.97501 3.82199L7.34301 7.34999L11.718 3.82199C11.914 3.65399 12.152 3.54199 12.383 3.77299Z" fill="#414143"/>
						</svg>