<svg width="58" height="58" viewBox="0 0 58 58" fill="none" xmlns="http://www.w3.org/2000/svg">
<g filter="url(#filter0_d)">
<circle cx="29" cy="25" r="25" transform="rotate(180 29 25)" fill="white"/>
</g>
<path d="M28.1446 20.7208L24.3796 24.4688C24.0966 24.7508 24.0966 25.2498 24.3796 25.5328L28.1446 29.2808C28.4386 29.5728 28.9136 29.5718 29.2056 29.2778C29.4976 28.9838 29.4976 28.5098 29.2036 28.2168L26.7266 25.7498L33.0816 25.7498C33.4966 25.7498 33.8316 25.4138 33.8316 24.9998C33.8316 24.5858 33.4966 24.2498 33.0816 24.2498L26.7266 24.2498L29.2036 21.7838C29.3506 21.6368 29.4236 21.4448 29.4236 21.2518C29.4236 21.0608 29.3506 20.8688 29.2056 20.7228C28.9136 20.4298 28.4386 20.4288 28.1446 20.7208Z" fill="#F9541A"/>
<defs>
<filter id="filter0_d" x="0" y="0" width="58" height="58" filterUnits="userSpaceOnUse" color-interpolation-filters="sRGB">
<feFlood flood-opacity="0" result="BackgroundImageFix"/>
<feColorMatrix in="SourceAlpha" type="matrix" values="0 0 0 0 0 0 0 0 0 0 0 0 0 0 0 0 0 0 127 0"/>
<feOffset dy="4"/>
<feGaussianBlur stdDeviation="2"/>
<feColorMatrix type="matrix" values="0 0 0 0 0 0 0 0 0 0 0 0 0 0 0 0 0 0 0.15 0"/>
<feBlend mode="normal" in2="BackgroundImageFix" result="effect1_dropShadow"/>
<feBlend mode="normal" in="SourceGraphic" in2="effect1_dropShadow" result="shape"/>
</filter>
</defs>
</svg>
