<svg width="22" height="22" viewBox="0 0 22 22" fill="none" xmlns="http://www.w3.org/2000/svg">
									<g clip-path="url(#clip0)">
									<path fill-rule="evenodd" clip-rule="evenodd" d="M5.115 20.295L-2.91987e-06 22L1.539 16.614C0.528827 14.9158 -0.00296889 12.9759 -2.91987e-06 11C-2.91987e-06 4.925 4.925 0 11 0C17.075 0 22 4.925 22 11C22 17.075 17.075 22 11 22C8.835 22 6.817 21.375 5.115 20.295Z" fill="url(#paint0_linear)"/>
									<path fill-rule="evenodd" clip-rule="evenodd" d="M6.18 9.85299C6.18 9.85299 8.113 14.184 12.018 15.71C14.732 16.63 15.713 14.969 15.713 14.969C15.8942 14.7344 15.9924 14.4464 15.9924 14.15C15.9924 13.8536 15.8942 13.5656 15.713 13.331C15.1793 12.8654 14.5558 12.5142 13.881 12.299C13.7344 12.2892 13.5879 12.3196 13.4574 12.3869C13.3268 12.4542 13.217 12.5559 13.14 12.681C12.66 13.163 12.168 13.96 11.608 13.399C10.4505 12.693 9.46794 11.734 8.734 10.594C8.424 10.033 8.634 10.022 8.804 9.85299C9.258 9.51299 9.498 8.95799 9.434 8.39499C9.434 8.39499 8.994 5.31899 7.342 6.12099C5.69 6.92299 5.91 9.32199 6.18 9.85299Z" fill="white"/>
									</g>
									<defs>
									<linearGradient id="paint0_linear" x1="-1.52588e-05" y1="0" x2="21.1996" y2="22" gradientUnits="userSpaceOnUse">
									<stop stop-color="#92D375"/>
									<stop offset="1" stop-color="#66CC99"/>
									</linearGradient>
									<clipPath id="clip0">
									<rect width="22" height="22" fill="white"/>
									</clipPath>
									</defs>
								</svg>