<svg width="26" height="26" viewBox="0 0 26 26" fill="none" xmlns="http://www.w3.org/2000/svg">
	<path d="M23.8336 12.9999C23.8336 18.9745 18.9737 23.8332 13.0002 23.8332C7.02672 23.8332 2.16689 18.9745 2.16689 12.9999C2.16689 7.0264 7.02672 2.16656 13.0002 2.16656C18.9737 2.16656 23.8336 7.0264 23.8336 12.9999Z" fill="url(#paint0_radial)"/>
	<path d="M16 13C16 14.6545 14.6542 16 13 16C11.3458 16 10 14.6545 10 13C10 11.3458 11.3458 10 13 10C14.6542 10 16 11.3458 16 13" stroke="white" stroke-width="1.2"/>
	<mask id="path-3-inside-1" fill="white">
		<path d="M17 9.5C17 9.77575 16.7757 10 16.5 10C16.2243 10 16 9.77575 16 9.5C16 9.2243 16.2243 9 16.5 9C16.7757 9 17 9.2243 17 9.5Z"/>
	</mask>
	<path d="M16.5 9.5V10.5C17.0518 10.5 17.5 10.0519 17.5 9.5H16.5ZM16.5 9.5H15.5C15.5 10.0519 15.9482 10.5 16.5 10.5V9.5ZM16.5 9.5V8.5C15.9482 8.5 15.5 8.94816 15.5 9.5H16.5ZM16.5 9.5H17.5C17.5 8.94816 17.0518 8.5 16.5 8.5V9.5Z" fill="white" mask="url(#path-3-inside-1)"/>
	<rect x="7.6" y="7.6" width="10.8" height="10.8" rx="2.4" stroke="white" stroke-width="1.2"/>
	<defs>
		<radialGradient id="paint0_radial" cx="0" cy="0" r="1" gradientUnits="userSpaceOnUse" gradientTransform="translate(6.50002 22) rotate(-54.3236) scale(24.0052)">
			<stop stop-color="#FFE602"/>
			<stop offset="0.359375" stop-color="#FB7749"/>
			<stop offset="0.682292" stop-color="#FA3737" stop-opacity="0.618056"/>
			<stop offset="1" stop-color="#7C1AF9"/>
		</radialGradient>
	</defs>
</svg>