<svg width="93" height="60" viewBox="0 0 93 60" fill="none" xmlns="http://www.w3.org/2000/svg">
<g clip-path="url(#clip0)">
<path d="M13.8548 17.2411H4.80335C2.219 17.2411 0.926826 15.9303 0.926826 13.3089V8.05955C0.926826 5.44127 2.219 4.13053 4.80335 4.12735H13.8548V6.752H4.80335C4.62821 6.72644 4.44961 6.74263 4.28173 6.7993C4.11384 6.85597 3.96128 6.95156 3.83616 7.07847C3.71105 7.20539 3.61682 7.36013 3.56095 7.53043C3.50508 7.70073 3.48911 7.8819 3.51431 8.05955V13.3089C3.48911 13.4865 3.50508 13.6677 3.56095 13.838C3.61682 14.0083 3.71105 14.163 3.83616 14.2899C3.96128 14.4168 4.11384 14.5124 4.28173 14.5691C4.44961 14.6258 4.62821 14.642 4.80335 14.6164H13.8548V17.2411Z" fill="#F9541A"/>
<path d="M28.0766 6.752H22.9016V17.2506H20.3189V6.752H15.1439V4.12735H28.0766V6.752Z" fill="#F9541A"/>
<path d="M42.2984 8.05955V9.37188C42.2984 11.9965 41.0046 13.3089 38.4171 13.3089H31.9767V17.2411H29.3892V4.12735H38.4171C41.0046 4.12735 42.2984 5.43808 42.2984 8.05955ZM39.7109 8.05955C39.7353 7.88164 39.7185 7.70041 39.6621 7.53017C39.6056 7.35992 39.5109 7.20532 39.3855 7.07853C39.26 6.95175 39.1072 6.85626 38.9392 6.7996C38.7712 6.74293 38.5925 6.72664 38.4171 6.752H31.9767V10.6937H38.4171C38.5929 10.7193 38.7721 10.7029 38.9405 10.646C39.109 10.5891 39.2621 10.4932 39.3876 10.3658C39.5132 10.2385 39.6077 10.0832 39.6638 9.91234C39.72 9.74148 39.7361 9.5597 39.7109 9.38142V8.05955Z" fill="#F9541A"/>
<path d="M56.5154 13.5283C56.5154 16.1466 55.2233 17.4574 52.6389 17.4605H47.4639C44.8827 17.4605 43.5906 16.1498 43.5874 13.5283V7.83047C43.5874 5.20582 44.8796 3.89349 47.4639 3.89349H52.6389C55.2233 3.89349 56.5154 5.20582 56.5154 7.83047V13.5283ZM53.928 13.5283V7.83047C53.953 7.65264 53.9369 7.47136 53.881 7.30091C53.8252 7.13045 53.731 6.9755 53.606 6.84825C53.4811 6.72101 53.3286 6.62496 53.1608 6.56767C52.993 6.51038 52.8143 6.49343 52.6389 6.51814H47.4639C47.2885 6.49343 47.1099 6.51038 46.9421 6.56767C46.7742 6.62496 46.6218 6.72101 46.4968 6.84825C46.3718 6.9755 46.2777 7.13045 46.2218 7.30091C46.166 7.47136 46.1499 7.65264 46.1749 7.83047V13.5283C46.1499 13.7062 46.166 13.8875 46.2218 14.0579C46.2777 14.2284 46.3718 14.3833 46.4968 14.5106C46.6218 14.6378 46.7742 14.7339 46.9421 14.7911C47.1099 14.8484 47.2885 14.8654 47.4639 14.8407H52.6389C52.8143 14.8654 52.993 14.8484 53.1608 14.7911C53.3286 14.7339 53.4811 14.6378 53.606 14.5106C53.731 14.3833 53.8252 14.2284 53.881 14.0579C53.9369 13.8875 53.953 13.7062 53.928 13.5283Z" fill="#F9541A"/>
<path d="M70.7372 17.241H68.1497V8.17406L60.392 17.241H57.8045V4.12733H60.392V13.1943L68.1497 4.12733H70.7372V17.241ZM65.5622 0.195129H62.9794V2.81501H65.5622V0.195129Z" fill="#F9541A"/>
<path d="M16.4517 38.5818H13.8548V30.3595L8.67988 38.5818L3.51431 30.3595V38.5818H0.926826V25.4872H3.51431L8.68929 33.7095L13.8548 25.4872H16.4517V38.5818Z" fill="#F9541A"/>
<path d="M30.6547 34.8644C30.6547 37.489 29.3625 38.7997 26.7782 38.7966H21.6267C19.0392 38.7966 17.7455 37.4858 17.7455 34.8644V29.1808C17.7455 26.5593 19.0392 25.2486 21.6267 25.2486H26.8017C29.3892 25.2486 30.6813 26.5593 30.6782 29.1808L30.6547 34.8644ZM28.0719 34.8644V29.1808C28.0955 29.0051 28.079 28.8263 28.0238 28.6581C27.9686 28.4899 27.8761 28.3368 27.7534 28.2105C27.6308 28.0843 27.4812 27.9882 27.3162 27.9297C27.1512 27.8712 26.9752 27.8519 26.8017 27.8732H21.6267C21.4512 27.8469 21.2721 27.8624 21.1036 27.9187C20.9351 27.975 20.7819 28.0705 20.6562 28.1975C20.5305 28.3245 20.4358 28.4796 20.3797 28.6503C20.3236 28.821 20.3076 29.0027 20.333 29.1808V34.8644C20.3078 35.0426 20.3239 35.2244 20.38 35.3953C20.4361 35.5661 20.5307 35.7214 20.6563 35.8488C20.7818 35.9761 20.9349 36.072 21.1033 36.129C21.2718 36.1859 21.451 36.2022 21.6267 36.1767H26.8017C26.9756 36.1982 27.1521 36.1788 27.3175 36.1201C27.4829 36.0613 27.6328 35.9648 27.7556 35.838C27.8783 35.7111 27.9707 35.5574 28.0256 35.3886C28.0804 35.2197 28.0963 35.0404 28.0719 34.8644Z" fill="#F9541A"/>
<path d="M44.8765 38.5818H42.2937V33.3325H34.5359V38.5818H31.9484V25.4872H34.5359V30.7365H42.2937V25.4872H44.8765V38.5818Z" fill="#F9541A"/>
<path d="M59.0982 28.088H53.9233V38.5866H51.3358V28.088H46.1608V25.4872H59.0888L59.0982 28.088Z" fill="#F9541A"/>
<path d="M73.3153 38.5818H70.7325V35.9572H62.9747V38.5818H60.3873V29.1808C60.3873 26.5593 61.681 25.2486 64.2685 25.2486H69.4435C72.0278 25.2486 73.32 26.5593 73.32 29.1808L73.3153 38.5818ZM70.7325 33.3325V29.1808C70.7569 29.0029 70.7401 28.8217 70.6837 28.6514C70.6272 28.4812 70.5325 28.3266 70.4071 28.1998C70.2816 28.073 70.1289 27.9775 69.9608 27.9208C69.7928 27.8642 69.6141 27.8479 69.4388 27.8732H64.2638C64.0883 27.8469 63.9091 27.8624 63.7406 27.9187C63.5721 27.975 63.4189 28.0705 63.2933 28.1975C63.1676 28.3245 63.0729 28.4796 63.0168 28.6503C62.9607 28.821 62.9447 29.0027 62.97 29.1808V33.3325H70.7325Z" fill="#F9541A"/>
<path d="M74.609 38.5818L79.4594 32.025L74.609 25.4872H77.841L81.7176 30.7365H82.3668V25.4872H84.9543V30.7365H85.6082L89.4847 25.4872H92.7167L87.8617 32.025L92.7073 38.5818H89.4753L85.5988 33.3325H84.9543V38.5818H82.3668V33.3325H81.7176L77.841 38.5818H74.609Z" fill="#F9541A"/>
<path d="M11.2768 48.5841H3.51431V59.0827H0.926826V45.9595H11.2768V48.5841Z" fill="#F9541A"/>
<path d="M25.4891 49.8964V51.204C25.4891 53.8286 24.1969 55.141 21.6126 55.141H15.1439V59.0732H12.5611V45.9595H21.6267C24.2017 45.9595 25.4891 47.2718 25.4891 49.8964ZM22.9016 49.8964C22.9271 49.7198 22.9119 49.5395 22.8572 49.3699C22.8024 49.2002 22.7096 49.0457 22.5861 48.9185C22.4625 48.7913 22.3116 48.695 22.1451 48.6369C21.9787 48.5789 21.8012 48.5608 21.6267 48.5841H15.1439V52.5163H21.6267C21.8023 52.5421 21.9814 52.5258 22.1497 52.4689C22.318 52.412 22.4708 52.3159 22.5961 52.1885C22.7213 52.061 22.8154 51.9056 22.8709 51.7347C22.9264 51.5637 22.9418 51.382 22.9158 51.204L22.9016 49.8964Z" fill="#F9541A"/>
<path d="M28.0766 56.4533H29.455C29.7561 56.4533 30.1842 56.0143 30.7488 55.141L32.386 52.5163L26.8017 45.9595H30.1842L33.9479 50.3307L36.6436 45.9595H39.725C38.6336 47.7251 37.3194 49.8392 35.7826 52.3016C35.2087 53.2178 34.7492 53.9384 34.4042 54.4633C34.0561 54.9883 33.7879 55.3891 33.595 55.6659C33.4021 55.9427 33.261 56.1431 33.1857 56.2099C33.1238 56.2774 33.0687 56.3509 33.0211 56.4294C31.9908 58.1951 30.8946 59.0732 29.7279 59.0732H28.0766V56.4533Z" fill="#F9541A"/>
<path d="M53.928 59.0732H51.3452V48.5746H43.5874V59.0732H40.9999V45.9595H53.928V59.0732Z" fill="#F9541A"/>
<path d="M68.1497 59.0732H65.5622V48.5746H57.8045V59.0732H55.2217V45.9595H68.1497V59.0732Z" fill="#F9541A"/>
</g>
<defs>
<clipPath id="clip0">
<rect width="91.7805" height="58.878" fill="white" transform="translate(0.926826 0.195129)"/>
</clipPath>
</defs>
</svg>
