<svg width="14" height="15" viewBox="0 0 14 15" fill="none" xmlns="http://www.w3.org/2000/svg">
							<path d="M6.99999 1.23959C4.74249 1.23959 2.91666 3.17954 2.91666 5.57814C2.91666 8.83204 6.99999 13.6354 6.99999 13.6354C6.99999 13.6354 11.0833 8.83204 11.0833 5.57814C11.0833 3.17954 9.25749 1.23959 6.99999 1.23959ZM6.99999 7.12761C6.61322 7.12761 6.24228 6.96437 5.96879 6.67378C5.6953 6.3832 5.54166 5.98908 5.54166 5.57814C5.54166 5.16719 5.6953 4.77307 5.96879 4.48249C6.24228 4.1919 6.61322 4.02866 6.99999 4.02866C7.38676 4.02866 7.7577 4.1919 8.03119 4.48249C8.30468 4.77307 8.45832 5.16719 8.45832 5.57814C8.45832 5.98908 8.30468 6.3832 8.03119 6.67378C7.7577 6.96437 7.38676 7.12761 6.99999 7.12761Z" fill="#414143"/>
						</svg>