<svg width="58" height="58" viewBox="0 0 58 58" fill="none" xmlns="http://www.w3.org/2000/svg">
<g filter="url(#filter0_d)">
<circle cx="29" cy="25" r="25" fill="white"/>
</g>
<path d="M29.8554 29.2792L33.6204 25.5312C33.9034 25.2492 33.9034 24.7502 33.6204 24.4672L29.8554 20.7192C29.5614 20.4272 29.0864 20.4282 28.7944 20.7222C28.5024 21.0162 28.5024 21.4902 28.7964 21.7832L31.2734 24.2502H24.9184C24.5034 24.2502 24.1684 24.5862 24.1684 25.0002C24.1684 25.4142 24.5034 25.7502 24.9184 25.7502H31.2734L28.7964 28.2162C28.6494 28.3632 28.5764 28.5552 28.5764 28.7482C28.5764 28.9392 28.6494 29.1312 28.7944 29.2772C29.0864 29.5702 29.5614 29.5712 29.8554 29.2792Z" fill="#F9541A"/>
<defs>
<filter id="filter0_d" x="0" y="0" width="58" height="58" filterUnits="userSpaceOnUse" color-interpolation-filters="sRGB">
<feFlood flood-opacity="0" result="BackgroundImageFix"/>
<feColorMatrix in="SourceAlpha" type="matrix" values="0 0 0 0 0 0 0 0 0 0 0 0 0 0 0 0 0 0 127 0"/>
<feOffset dy="4"/>
<feGaussianBlur stdDeviation="2"/>
<feColorMatrix type="matrix" values="0 0 0 0 0 0 0 0 0 0 0 0 0 0 0 0 0 0 0.15 0"/>
<feBlend mode="normal" in2="BackgroundImageFix" result="effect1_dropShadow"/>
<feBlend mode="normal" in="SourceGraphic" in2="effect1_dropShadow" result="shape"/>
</filter>
</defs>
</svg>
