<svg width="70" height="70" viewBox="0 0 70 70" fill="none" xmlns="http://www.w3.org/2000/svg">
<path opacity="0.4" d="M64.1666 34.9994C64.1666 51.1111 51.1087 64.1661 34.9999 64.1661C18.8912 64.1661 5.83325 51.1111 5.83325 34.9994C5.83325 18.8936 18.8912 5.83276 34.9999 5.83276C51.1087 5.83276 64.1666 18.8936 64.1666 34.9994Z" fill="#F9541A"/>
<path fill-rule="evenodd" clip-rule="evenodd" d="M37.5378 36.8395C37.5378 38.2453 36.3915 39.3916 34.9857 39.3916C33.5798 39.3916 32.4336 38.2453 32.4336 36.8395V23.9478C32.4336 22.542 33.5798 21.3958 34.9857 21.3958C36.3915 21.3958 37.5378 22.542 37.5378 23.9478V36.8395ZM32.4479 46.0935C32.4479 44.6877 33.5883 43.5414 34.9854 43.5414C36.4233 43.5414 37.5667 44.6877 37.5667 46.0935C37.5667 47.4993 36.4233 48.6456 35.0146 48.6456C33.6 48.6456 32.4479 47.4993 32.4479 46.0935Z" fill="#F9541A"/>
</svg>
