<svg width="61" height="71" viewBox="0 0 61 71" fill="none" xmlns="http://www.w3.org/2000/svg">
<g clip-path="url(#clip0)">
<path d="M47.7143 25.3236V45.6764L41.2521 49.473V29.1104L30.3049 35.5L19.3577 29.1104V49.473L12.9051 45.6764V25.3236L19.3384 21.527H19.3577L23.8427 24.169L25.8006 25.3236L30.3049 27.9558L34.8091 25.3236L36.7671 24.169L41.2521 21.527H41.2713L47.7143 25.3236Z" fill="#414143"/>
<path d="M60.6098 32.8776V53.2402L43.21 63.4362L36.7671 67.2034L30.3049 71L23.862 67.2034L17.4094 63.4362L0 53.2402V32.8776L1.97724 31.7328L6.46221 29.0908V49.473L12.9051 53.2402L19.3577 57.027L23.862 59.6494L25.8006 60.7942L30.3049 63.4362L34.8091 60.7942L36.7478 59.6494H36.7671L41.2521 57.027L47.7143 53.2402L54.1475 49.473V29.0908L58.6325 31.7328L60.6098 32.8776Z" fill="#414143"/>
<path d="M60.6098 17.7598V25.2942L58.6518 24.169L54.1668 21.527H54.1475L47.7143 17.7598L30.3049 7.55402L12.9051 17.7598L6.46221 21.527H6.44292L1.95795 24.169L0 25.2942V17.7598L6.44292 13.973H6.46221L12.9051 10.2058L30.3049 0L47.7143 10.2058L54.1475 13.973H54.1668L60.6098 17.7598Z" fill="#F9541A"/>
</g>
<defs>
<clipPath id="clip0">
<rect width="60.6098" height="71" fill="white"/>
</clipPath>
</defs>
</svg>
